<svg width="21" height="13" viewBox="0 0 21 13" fill="none" xmlns="http://www.w3.org/2000/svg">
<path d="M20.1333 1.539C19.3846 1.8 18.5868 1.973 17.7551 2.057C18.6108 1.651 19.2638 1.013 19.5709 0.244C18.7731 0.622 17.8922 0.889 16.9535 1.038C16.196 0.397 15.1164 0 13.9386 0C11.6534 0 9.81374 1.474 9.81374 3.281C9.81374 3.541 9.84142 3.791 9.90938 4.029C6.4779 3.896 3.44154 2.589 1.40178 0.598C1.04567 1.089 0.836792 1.651 0.836792 2.256C0.836792 3.392 1.57292 4.399 2.67018 4.982C2.00704 4.972 1.35648 4.819 0.805333 4.578C0.805333 4.588 0.805333 4.601 0.805333 4.614C0.805333 6.208 2.23606 7.532 4.11223 7.837C3.77626 7.91 3.41008 7.945 3.03007 7.945C2.76582 7.945 2.49905 7.933 2.24864 7.889C2.78343 9.188 4.30098 10.143 6.10543 10.174C4.70113 11.047 2.91808 11.573 0.987792 11.573C0.6493 11.573 0.32465 11.561 0 11.528C1.82836 12.465 3.99521 13 6.33193 13C13.9272 13 18.0797 8 18.0797 3.666C18.0797 3.521 18.0734 3.381 18.0646 3.242C18.8838 2.78 19.5721 2.203 20.1333 1.539Z" fill="#080809"/>
</svg>
